<svg width="192" height="192" viewBox="0 0 192 192" fill="none" xmlns="http://www.w3.org/2000/svg">
<g clip-path="url(#clip0_561_12)">
<circle cx="96" cy="96" r="94" fill="white" stroke="white" stroke-width="4"/>
<g clip-path="url(#clip1_561_12)">
<path d="M96 4C146.83 4 188 45.17 188 96C187.995 115.276 181.945 134.066 170.702 149.724C159.459 165.382 143.589 177.119 125.325 183.285C120.725 184.205 119 181.33 119 178.915C119 175.81 119.115 165.92 119.115 153.615C119.115 144.99 116.24 139.47 112.905 136.595C133.375 134.295 154.88 126.475 154.88 91.17C154.88 81.05 151.315 72.885 145.45 66.445C146.37 64.145 149.59 54.715 144.53 42.065C144.53 42.065 136.825 39.535 119.23 51.495C111.87 49.425 104.05 48.39 96.23 48.39C88.41 48.39 80.59 49.425 73.23 51.495C55.635 39.65 47.93 42.065 47.93 42.065C42.87 54.715 46.09 64.145 47.01 66.445C41.145 72.885 37.58 81.165 37.58 91.17C37.58 126.36 58.97 134.295 79.44 136.595C76.795 138.895 74.38 142.92 73.575 148.9C68.285 151.315 55.06 155.225 46.78 141.31C45.055 138.55 39.88 131.765 32.635 131.88C24.93 131.995 29.53 136.25 32.75 137.975C36.66 140.16 41.145 148.325 42.18 150.97C44.02 156.145 50 166.035 73.115 161.78C73.115 169.485 73.23 176.73 73.23 178.915C73.23 181.33 71.505 184.09 66.905 183.285C48.5814 177.186 32.6435 165.472 21.3522 149.804C10.061 134.137 3.98987 115.312 4.00001 96C4.00001 45.17 45.17 4 96 4Z" fill="#111"/>
<path d="M144.173 100.26L123.439 100.231C122.321 100.53 121.171 99.867 120.872 98.7492L117.746 88.8077L107.953 134.782C107.953 134.782 107.753 137.207 106.444 137.207C105.134 137.207 102.919 137.244 102.919 137.244C101.837 137.534 100.725 136.892 100.435 135.809L88.2838 75.8472L79.0723 119.168C78.7761 120.254 77.5079 121.16 76.4014 120.869L73.1421 120.913C71.9992 121.214 70.825 120.548 70.5187 119.426L64.3751 100.26H47.7829C46.6259 100.26 45.6875 99.3217 45.6875 98.1642V93.9734C45.6875 92.8163 46.6259 91.8779 47.7829 91.8779L68.4096 91.8103C69.6628 91.7705 70.7267 91.9136 71.0331 93.0355L74.2282 103.005L83.2218 55.9805C83.2218 55.9805 83.6673 54.5531 85.1081 54.5531C86.5486 54.5531 89.5769 54.4944 89.5769 54.4944C90.6594 54.2045 91.7716 54.8465 92.0617 55.929L104.104 115.43L113.007 72.6925C113.297 71.61 114.148 70.7061 115.23 70.996L118.809 70.9524C119.926 70.6527 121.076 71.3161 121.375 72.4342L127.489 91.8779H144.173C145.331 91.8779 146.269 92.8163 146.269 93.9734V98.1642C146.269 99.3218 145.331 100.26 144.173 100.26Z" fill="#31CB6D"/>
</g>
</g>
<defs>
<clipPath id="clip0_561_12">
<rect width="192" height="192" fill="white"/>
</clipPath>
<clipPath id="clip1_561_12">
<rect width="184" height="184" fill="white" transform="translate(4 4)"/>
</clipPath>
</defs>
</svg>
