<?xml version="1.0" standalone="no"?><!DOCTYPE svg PUBLIC "-//W3C//DTD SVG 1.1//EN" "http://www.w3.org/Graphics/SVG/1.1/DTD/svg11.dtd"><svg t="1700972559203" class="icon" viewBox="0 0 1024 1024" version="1.1" xmlns="http://www.w3.org/2000/svg" p-id="3849" xmlns:xlink="http://www.w3.org/1999/xlink" width="200" height="200"><path d="M241.24368 954.3218c19.55767-24.8196 93.95981-32.60259 276.52699-28.92298 295.31987 5.94978 286.24371 4.76847 286.24371 37.26901 0 15.66681-114.46466 25.61069-294.76365 25.61069-242.04945 0-289.97881-6.07224-268.00705-33.95792zM414.96722 847.4189c0-29.54725-31.24738-38.41671-135.33423-38.41671-227.598045 0-229.398914-2.91247-229.398914-370.81129C50.234076 25.669876 32.80325 40.668 512.229 40.668c479.42581 0 461.99494-14.998124 461.99494 397.5229 0 367.89882-1.80087 370.81129-229.39891 370.81129-104.08686 0-135.33423 8.86946-135.33423 38.41671 0 27.74407-27.01761 38.4167-97.2618 38.4167-70.24532 0-97.26178-10.67263-97.26178-38.4167zM901.27731 732.16877c0-14.08573-10.94199-25.61074-24.31516-25.61074-13.37317 0-24.31516 11.52501-24.31516 25.61074 0 14.08573 10.94199 25.61074 24.31516 25.61074 13.37317 0 24.31516-11.52501 24.31516-25.61074zm0-345.75039l0-268.91696-778.0966 0 0 537.83394 778.0966 0 0-268.91698zM487.4887 482.46016C445.38938 317.57324 426.02205 302.41665 379.22109 397.74412c-35.14888 71.59074-50.32976 80.30413-127.8458 73.3735-115.95779-10.36771-137.90561-71.89326-25.64531-71.89326 73.63848 0 87.96565-12.31376 136.33725-117.18057 29.72803-64.45003 66.75528-112.72183 82.28265-107.27266 15.52738 5.45278 44.02444 69.70832 63.32794 142.79491 19.3035 73.08418 44.6365 132.881 56.2977 132.881 11.66121 0 21.20126-11.52501 21.20126-25.61074 0-14.2682 65.51633-25.61074 147.9198-25.61074 107.58715 0 145.12731 8.7278 137.67764 32.01432-5.98846 18.71974-54.79773 32.80787-117.52499 33.92675-90.03097 1.61352-113.14934 12.92603-143.75729 70.38422-52.94785 99.39964-86.83384 84.65482-122.00211-53.08949z" fill="#707070" p-id="3850"></path></svg>